# xmcd
#
# Track frame offsets: 
#        150
#        19030
#        45212
#        67605
#        92150
#        118132
#        138632
#        161715
#        186682
#        204985
#
# Disc length: 3002 seconds
#
# Revision: 0
# Processed by: cddbd v1.5.2PL0 Copyright (c) Steve Scherf et al.
# Submitted via: ExactAudioCopy v1.0b3
#
DISCID=860bb80a
DTITLE=Manh Quynh - So Ngheo
DYEAR=2001
DGENRE=
TTITLE0=So ngheo
TTITLE1=Hay quen nhau
TTITLE2=Manh Quynh, Nhu Quynh - Nhu mot con me
TTITLE3=Mau hoa bi
TTITLE4=Chim sao ngay xua
TTITLE5=Cau hat tinh que
TTITLE6=Manh Quynh, Phi Nhung - Phan bac
TTITLE7=Neu biet tinh yeu
TTITLE8=Mot lan dang do
TTITLE9=Tinh yeu tra lai trang sao
EXTD=
EXTT0=
EXTT1=
EXTT2=
EXTT3=
EXTT4=
EXTT5=
EXTT6=
EXTT7=
EXTT8=
EXTT9=
PLAYORDER=
